PathFileType	4	(X/Y/Z)	C:\Users\WrightLab\Desktop\Jo\P5V12.trc
DataRate	CameraRate	NumFrames	NumMarkers	Units	OrigDataRate	OrigDataStartFrame	OrigNumFrames
100.00	100.00	      20	19	mm	100.00	520	      2078
Frame#	Time	Headset_Front			Headset_Back			Headset_Left			Headset_Right			Left_Shoulder			Right_Shoulder			Sternum			C7			Left Elbow			Right Elbow			Left Wrist			Right Wrist			Left ASIS			Right ASIS			S2			Left Knee			Right Knee			Left Ankle			Right Ankle			
		X1	Y1	Z1	X2	Y2	Z2	X3	Y3	Z3	X4	Y4	Z4	X5	Y5	Z5	X6	Y6	Z6	X7	Y7	Z7	X8	Y8	Z8	X9	Y9	Z9	X10	Y10	Z10	X11	Y11	Z11	X12	Y12	Z12	X13	Y13	Z13	X14	Y14	Z14	X15	Y15	Z15	X16	Y16	Z16	X17	Y17	Z17	X18	Y18	Z18	X19	Y19	Z19	

520	5.190	-250.88290	1684.42944	769.76862	-374.08328	1566.18567	645.54126							-121.30211	1528.11523	890.58459	1.01300	1557.58533	671.17139	-201.08514	1347.29346	669.61157	-103.26409	1478.70239	475.25024	-74.66173	1239.89661	968.13617	23.42263	1232.40710	398.64767	-283.11371	1166.14319	964.54730	-184.68887	1120.06750	388.32190	-198.69034	952.98224	809.74603	-172.03145	975.98981	536.36804	82.80986	1007.48773	727.45770	-109.92191	514.74579	857.78998	-94.06262	516.63220	515.22180	125.84647	141.06161	927.30719	-0.61231	117.05768	596.84430	
521	5.200	-250.74651	1684.34534	770.58093	-374.22000	1565.92358	647.22052							-120.92552	1528.20532	890.83441	0.92215	1557.48230	670.77252	-200.95241	1347.18750	669.86316	-103.99551	1478.60999	475.34589	-73.18324	1239.86401	968.48663	22.78969	1232.16797	398.02856	-282.09460	1166.25464	965.38678	-185.24216	1119.88098	388.41653	-198.40111	952.90527	810.07532	-172.58191	975.83740	536.87982	83.40009	1007.61157	727.16156	-110.12730	514.87097	858.08411	-94.22160	516.61694	514.71613	125.80920	140.50723	927.01770	-0.67879	116.99673	596.99170	
522	5.210	-250.04138	1683.87341	771.60138	-374.94049	1565.41882	649.23969							-119.89392	1528.11975	890.95819	0.87588	1557.39978	670.46899	-200.91685	1347.21179	670.30219	-104.64190	1478.44934	475.24594	-72.30042	1239.95483	968.49506	21.78924	1232.10693	397.71289	-281.10168	1166.41284	966.57190	-186.06683	1120.03284	388.06937	-198.02234	952.81573	810.49347	-172.82069	975.75482	537.04248	83.37541	1007.45044	726.87482	-110.04220	514.83337	858.22595	-94.33756	516.59424	514.56299	126.01890	140.30428	927.02441	-0.71113	117.04977	597.03033	
523	5.220	-249.20520	1683.43677	772.47668	-374.92447	1564.43323	651.40759							-119.26042	1528.14478	891.18140	0.85171	1557.35095	670.29144	-200.81760	1347.10315	670.61652	-105.56411	1478.20825	475.65698	-71.59748	1240.22302	968.98999	21.04618	1232.04675	397.49164	-279.58322	1166.12610	967.63550	-187.19489	1119.75378	388.33759	-197.70128	952.74890	810.85278	-173.02365	975.65729	537.25708	83.26320	1007.27106	726.84045	-109.81242	514.72546	858.12042	-94.51093	516.47845	514.25238	126.24270	140.17267	927.10840	-0.71222	117.05212	597.03125	
524	5.230	-248.31209	1682.78735	773.53516	-375.06696	1564.04858	653.76892							-118.39628	1528.07434	891.31403	0.81673	1557.27271	670.00916	-200.82497	1346.99414	671.28033	-106.22805	1478.00098	475.93991	-69.79366	1239.80212	968.62128	19.99634	1232.07971	397.21536	-278.34998	1166.25024	968.48083	-188.21388	1119.78015	388.63568	-197.46507	952.92242	811.43683	-173.49385	975.56885	537.87579	83.10369	1007.10480	726.50195	-109.68394	514.63086	858.46045	-95.01217	516.46112	513.63983	126.37225	140.05783	927.13043	-0.86737	116.80843	597.42407	
525	5.240	-247.66354	1682.57410	774.67615	-375.33942	1563.41150	656.26508							-117.60184	1527.86499	891.38757	0.84969	1557.22205	669.86060	-200.58279	1346.86243	671.67468	-106.74615	1477.69690	475.97983	-68.77483	1240.22620	969.02374	19.09077	1231.65613	396.97092	-277.14294	1166.30164	969.49048	-188.97653	1119.48779	388.80765	-197.02261	952.56104	811.91156	-173.81734	975.43945	538.42151	82.94500	1007.05750	726.14758	-109.41698	514.51654	858.07660	-95.45104	516.54962	513.32959	126.49519	140.02591	927.12067	-0.66403	117.09515	597.33374	
526	5.250	-247.39229	1682.59912	775.93970	-375.03830	1562.28833	658.78680							-117.11806	1528.03955	891.54114	0.87480	1557.16602	669.68909	-200.40704	1346.62134	672.09259	-107.11485	1477.40527	475.94733	-67.66368	1240.29346	969.20038	18.54438	1231.47351	396.58295	-275.81204	1166.21948	970.92529	-189.72780	1119.19910	389.10461	-196.58006	952.53760	812.44373	-173.94943	975.37518	538.62799	82.79524	1006.81506	725.86725	-109.11364	514.23480	857.81744	-96.21445	516.71490	513.28900	126.50195	140.03607	927.10858	-0.59712	117.16202	597.18805	
527	5.260	-247.08664	1682.68750	777.25208	-376.40674	1562.10400	661.62012							-116.61475	1528.03430	891.80560	0.88642	1557.13574	669.59515	-200.16170	1346.49463	672.46857	-107.62496	1477.49524	476.12503	-66.90105	1240.65710	969.64490	17.91841	1231.43823	396.43988	-274.91629	1166.52185	972.08978	-190.22676	1118.95422	389.35251	-196.39789	952.53674	812.71478	-174.20274	975.23334	538.96222	82.86536	1006.91876	725.89423	-108.86293	514.33148	857.79700	-96.57481	516.72632	513.22119	126.67799	139.98471	927.07623	-0.66145	116.84646	598.14795	
528	5.270	-246.38431	1682.49878	778.61035	-375.53250	1561.06653	663.80298							-115.59941	1528.05725	891.93115	0.92810	1557.05884	669.36450	-200.04179	1346.30054	672.96716	-108.06168	1477.33569	476.28101	-64.77820	1240.65686	969.82990	16.86919	1231.52429	396.13339	-273.41003	1166.17444	973.58484	-190.74208	1119.05811	389.42731	-196.03075	952.55157	813.02155	-174.53827	975.21515	539.56171	83.03271	1006.60345	725.53845	-108.43412	514.38214	857.58417	-97.87452	517.24225	512.90881	126.51520	140.04988	927.10480	-0.49991	116.98217	598.48859	
529	5.280	-244.88383	1682.07385	779.63464	-375.98093	1560.83276	666.98730							-114.77892	1528.16174	892.27527	1.00641	1556.99365	669.19470	-199.96925	1346.27429	673.51221	-108.50358	1477.23950	476.47092	-63.82119	1241.02002	969.85144	16.29577	1231.48804	396.07062	-272.00064	1166.09595	974.36133	-191.45651	1118.93542	389.78253	-195.85284	952.58087	813.25336	-174.73769	975.19598	539.95941	83.36902	1006.64282	725.36621	-107.91578	514.36133	857.82953	-98.39340	517.18225	512.85883	126.72951	139.97783	927.01440	-0.48043	116.99030	598.48712	
530	5.290	-243.58270	1681.93921	780.91998	-375.85120	1559.88611	669.67108							-113.56281	1528.21399	892.43811	1.07498	1557.12207	668.18799	-199.92625	1346.19946	674.13287	-108.92616	1477.24231	476.47186	-62.96772	1240.74353	970.73035	15.67518	1231.58252	396.01654	-270.55942	1166.12183	975.86475	-192.04797	1119.01074	390.20721	-195.53072	952.73444	813.53320	-175.07553	974.97223	540.35889	83.24495	1006.79285	725.35895	-107.22681	514.09491	857.36182	-99.38239	517.07434	512.93475	126.78259	139.88339	927.12939	-0.45499	117.02161	598.49158	
531	5.300	-242.26689	1681.68164	782.03119	-375.98395	1559.28979	672.72668							-112.46061	1528.08459	892.63013	1.35174	1557.04590	668.05292	-199.96304	1346.18738	674.98639	-109.55795	1477.32471	476.93176	-61.20678	1240.89038	971.27411	14.44302	1231.37036	395.89893	-269.37140	1166.14978	976.86536	-192.47609	1118.70215	390.37671	-195.26115	952.96100	813.96338	-175.46953	974.91455	540.98969	83.37647	1006.40247	724.88074	-106.01434	513.53723	857.68335	-100.36730	516.63983	513.09088	127.63998	139.16481	926.73877	-0.45838	117.02852	598.49438	
532	5.310	-241.26863	1681.43298	783.55963	-376.04099	1558.67224	676.00787							-112.01848	1528.12549	892.98657	1.39680	1556.94421	667.74127	-199.75919	1346.05664	675.36163	-109.92138	1477.27197	476.94693	-60.11439	1241.36462	971.43970	13.77355	1231.01245	396.08667	-268.19370	1166.19019	978.03772	-193.18875	1118.73303	390.68918	-194.93378	952.93311	814.31097	-175.76717	974.87921	541.46588	83.71835	1006.44434	724.85706	-105.76940	513.64758	857.37628	-101.36131	516.79718	512.64539	127.86218	139.00694	926.60608	-0.45080	116.89301	598.65656	
533	5.320	-240.30211	1681.15710	784.98737	-376.88403	1558.29382	679.17889							-111.08708	1527.97339	893.15796	1.68703	1556.67773	668.30054	-199.58832	1346.05713	675.89667	-110.49888	1477.11914	477.40100	-58.92686	1241.10596	971.90314	13.33153	1230.93115	396.11267	-266.94379	1166.42322	979.46063	-194.85815	1118.97339	391.87991	-194.27911	952.73596	814.79022	-175.85353	974.67627	541.98352	83.70718	1006.27985	724.67969	-105.15448	513.48865	857.04169	-102.26199	516.81592	512.63617	128.51866	138.43941	926.60193	-0.46901	117.00671	598.48987	
534	5.330	-239.44279	1681.11108	786.44647	-376.04276	1557.37622	682.38818							-110.37701	1528.01599	893.55426	1.76961	1556.60754	668.11670	-199.35445	1345.95215	676.26257	-110.91145	1476.93701	477.66940	-57.74231	1241.17432	972.00122	12.85932	1230.75391	395.94522	-265.30380	1166.13123	980.59436	-195.48975	1119.02710	391.92407	-193.31575	952.58575	815.45215	-175.95172	974.75732	542.56787	83.76099	1006.16901	724.53802	-104.16541	513.07422	856.95697	-103.35955	517.05780	512.50714	128.49629	138.41788	926.60248	-0.46822	117.02413	598.49506	
535	5.340	-237.59172	1680.81360	787.77435	-375.92685	1556.65918	685.81555							-108.53566	1527.52185	893.63770	2.07799	1556.42334	668.21057	-199.08600	1345.85999	676.67590	-111.28680	1476.76086	477.90085	-56.16330	1241.33301	971.83917	11.94499	1230.68042	395.55780	-263.98917	1166.11023	981.90381	-196.47081	1119.02954	392.34921	-192.44432	952.67560	816.11932	-176.34596	974.89276	543.19586	83.96271	1006.34863	724.37006	-103.79058	512.86475	856.74109	-103.77461	517.03583	512.44098	128.56490	138.34808	926.52594	-0.46547	116.89684	598.66071	
536	5.350	-235.68834	1680.09155	788.94531	-375.43668	1555.89661	688.88562							-107.63990	1527.56909	894.01593	2.86955	1556.16455	668.22345	-198.81613	1345.90637	677.33728	-111.43630	1476.63782	478.07077	-54.75324	1241.25671	972.38757	11.57119	1230.52441	395.49179	-262.44684	1166.15649	982.95978	-197.25267	1118.97241	392.78696	-191.83220	952.31201	816.68628	-176.79730	974.57446	544.16919	84.51681	1006.34100	723.80865	-103.07989	513.08112	854.87238	-104.40011	516.95190	512.54279	129.16470	137.71681	926.63989	-0.45436	117.04934	598.50000	
537	5.360	-235.23761	1680.30273	790.75024	-374.49805	1554.60840	692.42737							-106.80441	1527.54456	894.41736	3.06623	1556.06689	668.01685	-198.46245	1345.97986	677.81555	-111.55215	1476.52466	478.27545	-53.14169	1240.68372	972.58289	10.89482	1230.38989	395.33319	-261.08536	1166.07715	984.53510	-197.82341	1118.89697	393.06677	-191.11095	952.03101	817.20496	-177.38698	974.63879	544.77747	84.30587	1005.97565	723.12598	-102.05058	512.42596	854.07623	-105.10560	517.23138	512.28772	129.24721	137.45334	926.57721	-0.44881	116.92621	598.66638	
538	5.370	-234.43288	1680.20471	792.46136	-373.42896	1554.01611	696.57251							-105.95396	1527.52161	894.66315	3.32075	1556.01794	668.00800	-198.03500	1345.90686	678.26215	-111.70092	1476.32874	478.47598	-51.63567	1240.82324	972.84796	10.44181	1230.26563	395.21301	-259.63843	1166.04688	985.86511	-198.32393	1118.71777	393.43903	-190.81650	952.13025	817.90710	-177.85687	974.67297	544.79468	84.26941	1006.08179	723.06824	-100.97712	512.14429	853.38892	-105.85105	517.51343	511.90512	129.20364	137.51308	926.49207	-0.42505	116.96571	598.67371	
539	5.380	-232.40709	1679.51904	793.78729	-373.03864	1552.89795	700.04694							-104.48750	1527.14905	894.88910	3.84975	1556.11060	667.11536	-197.54134	1345.88696	678.75830	-111.87811	1476.36731	478.88687	-50.32628	1240.61694	973.09235	9.91500	1230.07202	395.24411	-258.35434	1166.12891	986.92493	-198.88640	1118.70300	393.82791	-190.64453	952.20410	818.41321	-177.95096	974.75610	545.33118	84.19710	1005.48102	722.62531	-100.54360	512.07898	853.32062	-106.18136	517.54517	511.84290	129.58658	137.19008	926.74323	-0.39596	116.99044	598.67542	
